X Lossless Decoder version 20191004 (152.0)

XLD extraction logfile from 2020-05-09 20:45:46 -0400

阿保剛 / GATE OF STEINER 10th Anniversary [Disc 1]

Used drive : PIONEER BD-RW   BDR-XD07 (revision 1.02)
Media type : Pressed CD

Ripper mode             : XLD Secure Ripper
Disable audio cache     : OK for the drive with a cache less than 1375KiB
Make use of C2 pointers : NO
Read offset correction  : 667
Max retry count         : 20
Gap status              : Analyzed, Appended (except HTOA)

TOC of the extracted CD
     Track |   Start  |  Length  | Start sector | End sector 
    ---------------------------------------------------------
        1  | 00:00:00 | 03:47:64 |         0    |    17088   
        2  | 03:47:64 | 03:56:61 |     17089    |    34849   
        3  | 07:44:50 | 02:54:29 |     34850    |    47928   
        4  | 10:39:04 | 02:25:49 |     47929    |    58852   
        5  | 13:04:53 | 02:04:02 |     58853    |    68154   
        6  | 15:08:55 | 02:34:49 |     68155    |    79753   
        7  | 17:43:29 | 01:42:02 |     79754    |    87405   
        8  | 19:25:31 | 02:40:67 |     87406    |    99472   
        9  | 22:06:23 | 01:54:40 |     99473    |   108062   
       10  | 24:00:63 | 02:20:22 |    108063    |   118584   
       11  | 26:21:10 | 00:36:67 |    118585    |   121351   
       12  | 26:58:02 | 02:38:38 |    121352    |   133239   
       13  | 29:36:40 | 04:29:18 |    133240    |   153432   
       14  | 34:05:58 | 03:32:14 |    153433    |   169346   
       15  | 37:37:72 | 04:41:27 |    169347    |   190448   
       16  | 42:19:24 | 06:06:53 |    190449    |   217951   
       17  | 48:26:02 | 04:56:04 |    217952    |   240155   
       18  | 53:22:06 | 02:12:04 |    240156    |   250059   
       19  | 55:34:10 | 02:36:37 |    250060    |   261796   
       20  | 58:10:47 | 02:57:46 |    261797    |   275117   
       21  | 61:08:18 | 01:59:67 |    275118    |   284109   
       22  | 63:08:10 | 01:57:53 |    284110    |   292937   
       23  | 65:05:63 | 02:40:47 |    292938    |   304984   
       24  | 67:46:35 | 04:12:60 |    304985    |   323944   
       25  | 71:59:20 | 02:41:47 |    323945    |   336066   
       26  | 74:40:67 | 01:54:55 |    336067    |   344671   
       27  | 76:35:47 | 02:18:67 |    344672    |   355088   

AccurateRip Summary
    Disc not found in AccurateRip DB.

All Tracks
    Album gain               : -4.59 dB
    Peak                     : 0.999969
    Statistics
        Read error                           : 0
        Jitter error (maybe fixed)           : 0
        Retry sector count                   : 0
        Damaged sector count                 : 0

Track 01
    Filename : /Users/RIPS/阿保剛 - GATE OF STEINER 10th Anniversary [Disc 1] (2020) [FLAC]/01 GATE OF STEINER.flac
    Pre-gap length : 00:02:00

    Track gain               : -6.32 dB
    Peak                     : 0.999969
    CRC32 hash (test run)    : 6F938D98
    CRC32 hash               : 6F938D98
    CRC32 hash (skip zero)   : 65F476C1
    AccurateRip v1 signature : 9D569B08
    AccurateRip v2 signature : 88287B97
        ->Track not present in AccurateRip database.
    Statistics
        Read error                           : 0
        Jitter error (maybe fixed)           : 0
        Retry sector count                   : 0
        Damaged sector count                 : 0

Track 02
    Filename : /Users/RIPS/阿保剛 - GATE OF STEINER 10th Anniversary [Disc 1] (2020) [FLAC]/02 GATE OF STEINER -piano-.flac
    Pre-gap length : 00:02:00

    Track gain               : -2.16 dB
    Peak                     : 0.757660
    CRC32 hash (test run)    : 89F22AC1
    CRC32 hash               : 89F22AC1
    CRC32 hash (skip zero)   : FF39E658
    AccurateRip v1 signature : 618CB977
    AccurateRip v2 signature : B5ECA650
        ->Track not present in AccurateRip database.
    Statistics
        Read error                           : 0
        Jitter error (maybe fixed)           : 0
        Retry sector count                   : 0
        Damaged sector count                 : 0

Track 03
    Filename : /Users/RIPS/阿保剛 - GATE OF STEINER 10th Anniversary [Disc 1] (2020) [FLAC]/03 Suspicious eyes.flac
    Pre-gap length : 00:02:00

    Track gain               : -3.89 dB
    Peak                     : 0.980011
    CRC32 hash (test run)    : 2606D967
    CRC32 hash               : 2606D967
    CRC32 hash (skip zero)   : 2792BCB1
    AccurateRip v1 signature : 63A83D39
    AccurateRip v2 signature : 86031231
        ->Track not present in AccurateRip database.
    Statistics
        Read error                           : 0
        Jitter error (maybe fixed)           : 0
        Retry sector count                   : 0
        Damaged sector count                 : 0

Track 04
    Filename : /Users/RIPS/阿保剛 - GATE OF STEINER 10th Anniversary [Disc 1] (2020) [FLAC]/04 Assailant.flac
    Pre-gap length : 00:02:00

    Track gain               : -7.31 dB
    Peak                     : 0.980011
    CRC32 hash (test run)    : 56FD7BA3
    CRC32 hash               : 56FD7BA3
    CRC32 hash (skip zero)   : FDFAB946
    AccurateRip v1 signature : 862A037B
    AccurateRip v2 signature : 443BB6E0
        ->Track not present in AccurateRip database.
    Statistics
        Read error                           : 0
        Jitter error (maybe fixed)           : 0
        Retry sector count                   : 0
        Damaged sector count                 : 0

Track 05
    Filename : /Users/RIPS/阿保剛 - GATE OF STEINER 10th Anniversary [Disc 1] (2020) [FLAC]/05 Believe me.flac
    Pre-gap length : 00:02:00

    Track gain               : -0.57 dB
    Peak                     : 0.799927
    CRC32 hash (test run)    : ED4E1999
    CRC32 hash               : ED4E1999
    CRC32 hash (skip zero)   : 9198FCBE
    AccurateRip v1 signature : EBCDFD88
    AccurateRip v2 signature : 1D31719E
        ->Track not present in AccurateRip database.
    Statistics
        Read error                           : 0
        Jitter error (maybe fixed)           : 0
        Retry sector count                   : 0
        Damaged sector count                 : 0

Track 06
    Filename : /Users/RIPS/阿保剛 - GATE OF STEINER 10th Anniversary [Disc 1] (2020) [FLAC]/06 Cycle.flac
    Pre-gap length : 00:02:00

    Track gain               : -6.23 dB
    Peak                     : 0.980011
    CRC32 hash (test run)    : FAE02E17
    CRC32 hash               : FAE02E17
    CRC32 hash (skip zero)   : EC9FD3F4
    AccurateRip v1 signature : 3D1219A2
    AccurateRip v2 signature : 09B2E208
        ->Track not present in AccurateRip database.
    Statistics
        Read error                           : 0
        Jitter error (maybe fixed)           : 0
        Retry sector count                   : 0
        Damaged sector count                 : 0

Track 07
    Filename : /Users/RIPS/阿保剛 - GATE OF STEINER 10th Anniversary [Disc 1] (2020) [FLAC]/07 Select of sorrow.flac
    Pre-gap length : 00:02:00

    Track gain               : -0.26 dB
    Peak                     : 0.805664
    CRC32 hash (test run)    : 623F0B5F
    CRC32 hash               : 623F0B5F
    CRC32 hash (skip zero)   : 0563A337
    AccurateRip v1 signature : 67A2D062
    AccurateRip v2 signature : 3F374152
        ->Track not present in AccurateRip database.
    Statistics
        Read error                           : 0
        Jitter error (maybe fixed)           : 0
        Retry sector count                   : 0
        Damaged sector count                 : 0

Track 08
    Filename : /Users/RIPS/阿保剛 - GATE OF STEINER 10th Anniversary [Disc 1] (2020) [FLAC]/08 hesitative consideration.flac
    Pre-gap length : 00:02:00

    Track gain               : 0.19 dB
    Peak                     : 0.665741
    CRC32 hash (test run)    : 383D6F95
    CRC32 hash               : 383D6F95
    CRC32 hash (skip zero)   : 2E7178E0
    AccurateRip v1 signature : DB8A8152
    AccurateRip v2 signature : 08BDC8FA
        ->Track not present in AccurateRip database.
    Statistics
        Read error                           : 0
        Jitter error (maybe fixed)           : 0
        Retry sector count                   : 0
        Damaged sector count                 : 0

Track 09
    Filename : /Users/RIPS/阿保剛 - GATE OF STEINER 10th Anniversary [Disc 1] (2020) [FLAC]/09 Solitude.flac
    Pre-gap length : 00:02:00

    Track gain               : -0.49 dB
    Peak                     : 0.769928
    CRC32 hash (test run)    : D90D968B
    CRC32 hash               : D90D968B
    CRC32 hash (skip zero)   : 889D68E0
    AccurateRip v1 signature : CEDD23A9
    AccurateRip v2 signature : 2052BEF6
        ->Track not present in AccurateRip database.
    Statistics
        Read error                           : 0
        Jitter error (maybe fixed)           : 0
        Retry sector count                   : 0
        Damaged sector count                 : 0

Track 10
    Filename : /Users/RIPS/阿保剛 - GATE OF STEINER 10th Anniversary [Disc 1] (2020) [FLAC]/10 Fake Verthandi.flac
    Pre-gap length : 00:02:00

    Track gain               : -6.22 dB
    Peak                     : 0.980011
    CRC32 hash (test run)    : 600D10D9
    CRC32 hash               : 600D10D9
    CRC32 hash (skip zero)   : 83F16D88
    AccurateRip v1 signature : D10A80DB
    AccurateRip v2 signature : E716AB2B
        ->Track not present in AccurateRip database.
    Statistics
        Read error                           : 0
        Jitter error (maybe fixed)           : 0
        Retry sector count                   : 0
        Damaged sector count                 : 0

Track 11
    Filename : /Users/RIPS/阿保剛 - GATE OF STEINER 10th Anniversary [Disc 1] (2020) [FLAC]/11 Ringing -GATE OF STEINER-.flac
    Pre-gap length : 00:02:00

    Track gain               : -5.02 dB
    Peak                     : 0.821533
    CRC32 hash (test run)    : D6D72F8E
    CRC32 hash               : D6D72F8E
    CRC32 hash (skip zero)   : E6DA6300
    AccurateRip v1 signature : CC8474E9
    AccurateRip v2 signature : 52CF75C3
        ->Track not present in AccurateRip database.
    Statistics
        Read error                           : 0
        Jitter error (maybe fixed)           : 0
        Retry sector count                   : 0
        Damaged sector count                 : 0

Track 12
    Filename : /Users/RIPS/阿保剛 - GATE OF STEINER 10th Anniversary [Disc 1] (2020) [FLAC]/12 Popping steiner.flac
    Pre-gap length : 00:02:00

    Track gain               : -6.45 dB
    Peak                     : 0.999847
    CRC32 hash (test run)    : 0A2B9B01
    CRC32 hash               : 0A2B9B01
    CRC32 hash (skip zero)   : 606F003B
    AccurateRip v1 signature : 56526B80
    AccurateRip v2 signature : 528B7DFD
        ->Track not present in AccurateRip database.
    Statistics
        Read error                           : 0
        Jitter error (maybe fixed)           : 0
        Retry sector count                   : 0
        Damaged sector count                 : 0

Track 13
    Filename : /Users/RIPS/阿保剛 - GATE OF STEINER 10th Anniversary [Disc 1] (2020) [FLAC]/13 GATE OF PHENOGRAM.flac
    Pre-gap length : 00:02:00

    Track gain               : -6.01 dB
    Peak                     : 0.999847
    CRC32 hash (test run)    : 94DD43C2
    CRC32 hash               : 94DD43C2
    CRC32 hash (skip zero)   : 4A8DCFD0
    AccurateRip v1 signature : 24C8CF6A
    AccurateRip v2 signature : AE805BDB
        ->Track not present in AccurateRip database.
    Statistics
        Read error                           : 0
        Jitter error (maybe fixed)           : 0
        Retry sector count                   : 0
        Damaged sector count                 : 0

Track 14
    Filename : /Users/RIPS/阿保剛 - GATE OF STEINER 10th Anniversary [Disc 1] (2020) [FLAC]/14 GATE OF PHENOGRAM -piano-.flac
    Pre-gap length : 00:02:00

    Track gain               : 2.09 dB
    Peak                     : 0.613037
    CRC32 hash (test run)    : 4883C4A2
    CRC32 hash               : 4883C4A2
    CRC32 hash (skip zero)   : F6C62E2C
    AccurateRip v1 signature : B6A2784A
    AccurateRip v2 signature : 062C5301
        ->Track not present in AccurateRip database.
    Statistics
        Read error                           : 0
        Jitter error (maybe fixed)           : 0
        Retry sector count                   : 0
        Damaged sector count                 : 0

Track 15
    Filename : /Users/RIPS/阿保剛 - GATE OF STEINER 10th Anniversary [Disc 1] (2020) [FLAC]/15 Messenger -main theme-.flac
    Pre-gap length : 00:02:00

    Track gain               : -5.40 dB
    Peak                     : 0.984924
    CRC32 hash (test run)    : 9072DC3F
    CRC32 hash               : 9072DC3F
    CRC32 hash (skip zero)   : 6F3BBF58
    AccurateRip v1 signature : 2E2E9A25
    AccurateRip v2 signature : CCF5B7DF
        ->Track not present in AccurateRip database.
    Statistics
        Read error                           : 0
        Jitter error (maybe fixed)           : 0
        Retry sector count                   : 0
        Damaged sector count                 : 0

Track 16
    Filename : /Users/RIPS/阿保剛 - GATE OF STEINER 10th Anniversary [Disc 1] (2020) [FLAC]/16 Messenger -piano-.flac
    Pre-gap length : 00:02:00

    Track gain               : -0.90 dB
    Peak                     : 0.999298
    CRC32 hash (test run)    : 6F6DCCE7
    CRC32 hash               : 6F6DCCE7
    CRC32 hash (skip zero)   : 0B1A5187
    AccurateRip v1 signature : C2C0062B
    AccurateRip v2 signature : C44AA094
        ->Track not present in AccurateRip database.
    Statistics
        Read error                           : 0
        Jitter error (maybe fixed)           : 0
        Retry sector count                   : 0
        Damaged sector count                 : 0

Track 17
    Filename : /Users/RIPS/阿保剛 - GATE OF STEINER 10th Anniversary [Disc 1] (2020) [FLAC]/17 Re-awake.flac
    Pre-gap length : 00:02:00

    Track gain               : -5.16 dB
    Peak                     : 0.903046
    CRC32 hash (test run)    : 15E56675
    CRC32 hash               : 15E56675
    CRC32 hash (skip zero)   : 31F6D062
    AccurateRip v1 signature : D39DBE41
    AccurateRip v2 signature : 2F7D0A80
        ->Track not present in AccurateRip database.
    Statistics
        Read error                           : 0
        Jitter error (maybe fixed)           : 0
        Retry sector count                   : 0
        Damaged sector count                 : 0

Track 18
    Filename : /Users/RIPS/阿保剛 - GATE OF STEINER 10th Anniversary [Disc 1] (2020) [FLAC]/18 Believe me -zero-.flac
    Pre-gap length : 00:02:00

    Track gain               : 0.34 dB
    Peak                     : 0.714111
    CRC32 hash (test run)    : 42DFF30E
    CRC32 hash               : 42DFF30E
    CRC32 hash (skip zero)   : 54D029B1
    AccurateRip v1 signature : BCCBDAB7
    AccurateRip v2 signature : DACFFE3A
        ->Track not present in AccurateRip database.
    Statistics
        Read error                           : 0
        Jitter error (maybe fixed)           : 0
        Retry sector count                   : 0
        Damaged sector count                 : 0

Track 19
    Filename : /Users/RIPS/阿保剛 - GATE OF STEINER 10th Anniversary [Disc 1] (2020) [FLAC]/19 The end of messenger.flac
    Pre-gap length : 00:02:00

    Track gain               : -4.28 dB
    Peak                     : 0.980042
    CRC32 hash (test run)    : E902D2DA
    CRC32 hash               : E902D2DA
    CRC32 hash (skip zero)   : A38E5818
    AccurateRip v1 signature : 365E5CB4
    AccurateRip v2 signature : E89E78F0
        ->Track not present in AccurateRip database.
    Statistics
        Read error                           : 0
        Jitter error (maybe fixed)           : 0
        Retry sector count                   : 0
        Damaged sector count                 : 0

Track 20
    Filename : /Users/RIPS/阿保剛 - GATE OF STEINER 10th Anniversary [Disc 1] (2020) [FLAC]/20 世界線を越えて -GATE OF STEINER-.flac
    Pre-gap length : 00:02:00

    Track gain               : -8.18 dB
    Peak                     : 0.891205
    CRC32 hash (test run)    : 81F5AA07
    CRC32 hash               : 81F5AA07
    CRC32 hash (skip zero)   : ED54019B
    AccurateRip v1 signature : DF4DF463
    AccurateRip v2 signature : D1870F4C
        ->Track not present in AccurateRip database.
    Statistics
        Read error                           : 0
        Jitter error (maybe fixed)           : 0
        Retry sector count                   : 0
        Damaged sector count                 : 0

Track 21
    Filename : /Users/RIPS/阿保剛 - GATE OF STEINER 10th Anniversary [Disc 1] (2020) [FLAC]/21 せかいせんをこえて (PSG).flac
    Pre-gap length : 00:02:00

    Track gain               : -5.53 dB
    Peak                     : 0.984314
    CRC32 hash (test run)    : 3A1B8F74
    CRC32 hash               : 3A1B8F74
    CRC32 hash (skip zero)   : 331DDAF2
    AccurateRip v1 signature : 341CDE60
    AccurateRip v2 signature : 5323F49F
        ->Track not present in AccurateRip database.
    Statistics
        Read error                           : 0
        Jitter error (maybe fixed)           : 0
        Retry sector count                   : 0
        Damaged sector count                 : 0

Track 22
    Filename : /Users/RIPS/阿保剛 - GATE OF STEINER 10th Anniversary [Disc 1] (2020) [FLAC]/22 せかいせんをこえて (FM).flac
    Pre-gap length : 00:02:00

    Track gain               : -4.28 dB
    Peak                     : 0.959869
    CRC32 hash (test run)    : 22F83329
    CRC32 hash               : 22F83329
    CRC32 hash (skip zero)   : B2726DF4
    AccurateRip v1 signature : F913A00F
    AccurateRip v2 signature : B329DE3E
        ->Track not present in AccurateRip database.
    Statistics
        Read error                           : 0
        Jitter error (maybe fixed)           : 0
        Retry sector count                   : 0
        Damaged sector count                 : 0

Track 23
    Filename : /Users/RIPS/阿保剛 - GATE OF STEINER 10th Anniversary [Disc 1] (2020) [FLAC]/23 運命石.flac
    Pre-gap length : 00:02:00

    Track gain               : -5.24 dB
    Peak                     : 0.999847
    CRC32 hash (test run)    : F857D62C
    CRC32 hash               : F857D62C
    CRC32 hash (skip zero)   : 99EBF249
    AccurateRip v1 signature : 7211FB2F
    AccurateRip v2 signature : F648B0C9
        ->Track not present in AccurateRip database.
    Statistics
        Read error                           : 0
        Jitter error (maybe fixed)           : 0
        Retry sector count                   : 0
        Damaged sector count                 : 0

Track 24
    Filename : /Users/RIPS/阿保剛 - GATE OF STEINER 10th Anniversary [Disc 1] (2020) [FLAC]/24 GATE OF STEINER -piano- (ELITE).flac
    Pre-gap length : 00:02:00

    Track gain               : -1.59 dB
    Peak                     : 0.838104
    CRC32 hash (test run)    : 550BA57A
    CRC32 hash               : 550BA57A
    CRC32 hash (skip zero)   : CFFB8CD6
    AccurateRip v1 signature : 92B9E562
    AccurateRip v2 signature : 30131AEC
        ->Track not present in AccurateRip database.
    Statistics
        Read error                           : 0
        Jitter error (maybe fixed)           : 0
        Retry sector count                   : 0
        Damaged sector count                 : 0

Track 25
    Filename : /Users/RIPS/阿保剛 - GATE OF STEINER 10th Anniversary [Disc 1] (2020) [FLAC]/25 hesitative consideration (ELITE).flac
    Pre-gap length : 00:02:00

    Track gain               : -0.40 dB
    Peak                     : 0.691437
    CRC32 hash (test run)    : 5311E7C9
    CRC32 hash               : 5311E7C9
    CRC32 hash (skip zero)   : 7FFA30AE
    AccurateRip v1 signature : 5DFF98C5
    AccurateRip v2 signature : ACC4B335
        ->Track not present in AccurateRip database.
    Statistics
        Read error                           : 0
        Jitter error (maybe fixed)           : 0
        Retry sector count                   : 0
        Damaged sector count                 : 0

Track 26
    Filename : /Users/RIPS/阿保剛 - GATE OF STEINER 10th Anniversary [Disc 1] (2020) [FLAC]/26 Solitude (ELITE).flac
    Pre-gap length : 00:02:00

    Track gain               : 3.15 dB
    Peak                     : 0.526489
    CRC32 hash (test run)    : D543ED7F
    CRC32 hash               : D543ED7F
    CRC32 hash (skip zero)   : C334CE24
    AccurateRip v1 signature : C7A82982
    AccurateRip v2 signature : 33105B7A
        ->Track not present in AccurateRip database.
    Statistics
        Read error                           : 0
        Jitter error (maybe fixed)           : 0
        Retry sector count                   : 0
        Damaged sector count                 : 0

Track 27
    Filename : /Users/RIPS/阿保剛 - GATE OF STEINER 10th Anniversary [Disc 1] (2020) [FLAC]/27 Fake Verthandi (ELITE).flac
    Pre-gap length : 00:02:00

    Track gain               : -4.58 dB
    Peak                     : 0.979858
    CRC32 hash (test run)    : 5E54305E
    CRC32 hash               : 5E54305E
    CRC32 hash (skip zero)   : 88EDD489
    AccurateRip v1 signature : FD4143A2
    AccurateRip v2 signature : 9ABEF2F7
        ->Track not present in AccurateRip database.
    Statistics
        Read error                           : 0
        Jitter error (maybe fixed)           : 0
        Retry sector count                   : 0
        Damaged sector count                 : 0

No errors occurred

End of status report

-----BEGIN XLD SIGNATURE-----
pKyaB4EdINLTLCyRJN69kf9_AhiF6Z5zT1kqyMBOpYRbZvt1laabXMmj6FbIQBZgcN_5V86A2QFkRhhuHAWljHZntrkOwY7bgYpPwnq
-----END XLD SIGNATURE-----
